# xmcd
#
# Track frame offsets:
#	150
#	16518
#	34290
#	52029
#	72391
#	89129
#	104729
#	118765
#	132280
#	144077
#	156871
#	172486
#
# Disc length: 2523
#
# Revision: 2
# Processed by: cddbd v1.5.1PL0 Copyright (c) Steve Scherf et al.
# Submitted via: EasyCDDAExtractor 7.0.5.4
# Normalized: r1:DSETVAR1
#
DISCID=b209d90c
DTITLE=Various Artist - Country Hits
DYEAR=1900
DGENRE=Country
TTITLE0=Le Ann Rimes - Can't Fight The Moonlight
TTITLE1=Clint Black - Nothin' But The Tail Lights
TTITLE2=Willie Nelson - Seven Spanish Angels
TTITLE3=Brooks And Dunn - Only In America
TTITLE4=diamond Rio - Two Dozen Roses
TTITLE5=Terri Clark - I Just Wanna Be Mad
TTITLE6=Dwight Yoakam - Guitars, Cadillacs
TTITLE7=Mickey Gilley - The Girls All Get Prettier
TTITLE8=Johnny Paycheck - Take This Job And Shove It
TTITLE9=Dolly Parton - 9 to 5
TTITLE10=Billy Ray Cirus - Achy Breaky Heart
TTITLE11=Garth Brooks - The Thunder Rolls
EXTD=
EXTT0=
EXTT1=
EXTT2=
EXTT3=
EXTT4=
EXTT5=
EXTT6=
EXTT7=
EXTT8=
EXTT9=
EXTT10=
EXTT11=
PLAYORDER=
